<svg width="18.65" height="20" viewBox="0 0 25 26" fill="none" xmlns="http://www.w3.org/2000/svg">
<path d="M5.79343 2.31843C5.79313 2.93301 5.54868 3.52229 5.11386 3.95665C4.67905 4.391 4.08949 4.63485 3.47488 4.63454C2.86026 4.63424 2.27095 4.3898 1.83657 3.95501C1.40219 3.52022 1.15833 2.93069 1.15863 2.31611C1.15894 1.70153 1.40339 1.11225 1.8382 0.677894C2.27302 0.243538 2.86258 -0.000306999 3.47719 2.90078e-07C4.09181 0.000307579 4.68112 0.244743 5.1155 0.679533C5.54988 1.11432 5.79374 1.70385 5.79343 2.31843ZM5.86296 6.35048H1.22816V20.8566H5.86296V6.35048ZM13.1859 6.35048H8.57431V20.8566H13.1396V13.2444C13.1396 9.00376 18.6666 8.60982 18.6666 13.2444V20.8566H23.2435V11.6686C23.2435 4.51984 15.063 4.78632 13.1396 8.29699L13.1859 6.35048Z" fill="#E3E3E3"/>
</svg>
