<svg width="18.65" height="20" viewBox="0 0 25 26" fill="none" xmlns="http://www.w3.org/2000/svg">
<path d="M7.7997 6.34662C7.71396 6.14533 7.5717 5.97322 7.39015 5.85113C7.2086 5.72903 6.99555 5.66218 6.77678 5.65868H3.15585C3.06074 5.65328 2.96574 5.67105 2.87902 5.71047C2.79229 5.74988 2.71644 5.80977 2.65797 5.88497C2.60958 5.97058 2.58415 6.06724 2.58415 6.16558C2.58415 6.26391 2.60958 6.36058 2.65797 6.44618L5.12926 10.7277L1.23675 17.5981C1.18565 17.6827 1.15864 17.7798 1.15864 17.8787C1.15864 17.9776 1.18565 18.0746 1.23675 18.1593C1.28532 18.2398 1.35463 18.3058 1.43743 18.3504C1.52024 18.395 1.6135 18.4165 1.70747 18.4127H5.32841C5.54541 18.4059 5.7556 18.3353 5.93271 18.2098C6.10981 18.0842 6.24597 17.9092 6.32416 17.7067L10.271 10.7277L7.7997 6.34662ZM22.6546 1.44957C22.7013 1.36343 22.7258 1.26697 22.7258 1.16896C22.7258 1.07095 22.7013 0.974498 22.6546 0.888355C22.6011 0.81173 22.529 0.749943 22.4451 0.708781C22.3612 0.667618 22.2682 0.648428 22.1748 0.653007H18.4815C18.2677 0.659043 18.0606 0.728548 17.8865 0.85267C17.7124 0.976792 17.5792 1.14992 17.5038 1.35C17.5038 1.35 9.62827 15.317 9.3567 15.7696L14.5527 25.3012C14.6374 25.5021 14.7779 25.6746 14.9576 25.7981C15.1373 25.9216 15.3487 25.991 15.5666 25.9982H19.1875C19.2826 26.0062 19.3781 25.9886 19.4641 25.9472C19.55 25.9058 19.6233 25.8421 19.6764 25.7628C19.7256 25.6775 19.7516 25.5807 19.7516 25.4822C19.7516 25.3837 19.7256 25.2869 19.6764 25.2016L14.5256 15.7877L22.6546 1.44957Z" fill="#E3E3E3"/>
</svg>
