<svg width="26" height="26" viewBox="0 0 26 26" fill="none" xmlns="http://www.w3.org/2000/svg">
<path d="M24.375 24.1429H1.625V17.9401C1.01989 17.6089 0.469978 17.1596 0 16.6123V24.1429C0 24.6355 0.171205 25.1079 0.475951 25.4561C0.780698 25.8044 1.19402 26.0001 1.625 26.0001H24.375C24.806 26.0001 25.2193 25.8044 25.524 25.4561C25.8288 25.1079 26 24.6355 26 24.1429V16.6123C25.5335 17.1617 24.9827 17.6086 24.375 17.9309V24.1429Z" fill="#9e9e9e"/>
<path d="M18.6875 18.9429C18.903 18.9429 19.1097 18.845 19.262 18.6709C19.4144 18.4967 19.5 18.2606 19.5 18.0143V12.9443H17.875V14.8572H9.75V16.7143H17.875V18.0143C17.875 18.2606 17.9606 18.4967 18.113 18.6709C18.2653 18.845 18.472 18.9429 18.6875 18.9429Z" fill="#9e9e9e"/>
<path d="M25.1875 3.71443H17.875V2.21016C17.8664 1.61579 17.6522 1.04951 17.2791 0.635308C16.906 0.221105 16.4045 -0.00727294 15.8844 0.000176694H10.1156C9.59552 -0.00727294 9.09402 0.221105 8.72093 0.635308C8.34784 1.04951 8.13356 1.61579 8.125 2.21016V3.71443H0.8125C0.597012 3.71443 0.390349 3.81226 0.237976 3.9864C0.0856024 4.16054 0 4.39672 0 4.64299V12.0715C0 13.3028 0.428012 14.4838 1.18988 15.3545C1.95175 16.2252 2.98506 16.7143 4.0625 16.7143H6.5V18.0143C6.5 18.2606 6.5856 18.4967 6.73798 18.6709C6.89035 18.845 7.09701 18.9429 7.3125 18.9429C7.52799 18.9429 7.73465 18.845 7.88702 18.6709C8.0394 18.4967 8.125 18.2606 8.125 18.0143V12.9443H6.5V14.8572H4.0625C3.41603 14.8572 2.79605 14.5637 2.33893 14.0413C1.88181 13.5189 1.625 12.8103 1.625 12.0715V5.57155H24.375V12.0715C24.375 12.8103 24.1182 13.5189 23.6611 14.0413C23.204 14.5637 22.584 14.8572 21.9375 14.8572H21.125V16.7143H21.9375C23.0149 16.7143 24.0483 16.2252 24.8101 15.3545C25.572 14.4838 26 13.3028 26 12.0715V4.64299C26 4.39672 25.9144 4.16054 25.762 3.9864C25.6097 3.81226 25.403 3.71443 25.1875 3.71443ZM16.25 3.71443H9.75V2.25658C9.75419 2.14901 9.79455 2.04744 9.86267 1.97305C9.93079 1.89866 10.0214 1.8572 10.1156 1.8573H15.8925C15.9384 1.85607 15.984 1.86518 16.0268 1.88411C16.0696 1.90305 16.1088 1.93143 16.142 1.96765C16.1752 2.00387 16.2018 2.04721 16.2203 2.09519C16.2389 2.14317 16.2489 2.19486 16.25 2.2473V3.71443Z" fill="#9e9e9e"/>
</svg>
