<svg width="26" height="27" viewBox="0 0 26 27" fill="none" xmlns="http://www.w3.org/2000/svg">
<path d="M22.3027 3.5542L6.90999 0.853791C6.47848 0.779413 6.03489 0.878043 5.67646 1.12806C5.31803 1.37808 5.074 1.75908 4.99786 2.18756L1.48205 22.0297C1.4443 22.2423 1.44908 22.4602 1.49612 22.671C1.54316 22.8818 1.63154 23.0813 1.75621 23.2582C1.88088 23.435 2.0394 23.5857 2.22271 23.7017C2.40602 23.8177 2.61053 23.8966 2.82456 23.9341L18.2173 26.6345C18.3132 26.6518 18.4105 26.6604 18.508 26.6603C18.8954 26.6572 19.2693 26.5192 19.5647 26.2703C19.8602 26.0214 20.0583 25.6775 20.1247 25.2983L23.6405 5.45622C23.7162 5.02785 23.6179 4.58716 23.3671 4.23065C23.1164 3.87415 22.7336 3.63091 22.3027 3.5542ZM22.2519 5.21436L18.7361 25.0565C18.7309 25.087 18.7196 25.1162 18.703 25.1424C18.6864 25.1686 18.6647 25.1913 18.6392 25.2091C18.588 25.2446 18.5247 25.2586 18.4631 25.2479L3.06564 22.5486C3.03427 22.5437 3.00421 22.5325 2.97728 22.5158C2.95035 22.4991 2.92709 22.4771 2.90888 22.4512C2.89068 22.4254 2.87792 22.3961 2.87135 22.3653C2.86478 22.3344 2.86454 22.3025 2.87065 22.2715L6.38646 2.42942C6.39168 2.39889 6.40293 2.36968 6.41956 2.34349C6.43619 2.31729 6.45788 2.29462 6.48336 2.27679C6.53599 2.24033 6.60097 2.22599 6.66418 2.23687L22.0569 4.93728C22.0883 4.94221 22.1184 4.95338 22.1453 4.97011C22.1722 4.98684 22.1955 5.00879 22.2137 5.03466C22.2319 5.06052 22.2447 5.08976 22.2512 5.12064C22.2578 5.15152 22.258 5.18339 22.2519 5.21436ZM19.4286 7.58015C19.4008 7.74398 19.3155 7.89275 19.1879 8.00017C19.0603 8.10759 18.8986 8.16675 18.7314 8.1672C18.6898 8.16718 18.6483 8.16364 18.6073 8.15663L8.79848 6.43541C8.70436 6.42202 8.61391 6.38996 8.53252 6.34114C8.45112 6.29231 8.38044 6.22773 8.32468 6.15122C8.26892 6.07471 8.22922 5.98784 8.20793 5.89577C8.18665 5.80371 8.18422 5.70833 8.20079 5.61532C8.21736 5.5223 8.25259 5.43355 8.30438 5.35433C8.35617 5.27512 8.42348 5.20706 8.50228 5.15421C8.58108 5.10136 8.66978 5.06479 8.7631 5.04668C8.85642 5.02858 8.95244 5.0293 9.04547 5.04881L18.8543 6.76886C19.0384 6.80153 19.202 6.90512 19.3095 7.05706C19.4171 7.209 19.4599 7.39701 19.4286 7.58015ZM18.7727 11.2774C18.7449 11.4412 18.6596 11.59 18.532 11.6974C18.4044 11.8048 18.2427 11.864 18.0755 11.8644C18.0358 11.8641 17.9963 11.8602 17.9573 11.8527L8.1485 10.1326C7.96326 10.1001 7.79862 9.99577 7.6908 9.84263C7.58298 9.68949 7.54081 9.50007 7.57356 9.31604C7.60631 9.13201 7.71131 8.96845 7.86545 8.86133C8.01959 8.75421 8.21026 8.71231 8.39549 8.74485L18.2043 10.4661C18.3873 10.5001 18.5495 10.6042 18.6558 10.756C18.7622 10.9078 18.8042 11.0951 18.7727 11.2774ZM13.2184 14.1175C13.1892 14.2804 13.1032 14.428 12.9755 14.5343C12.8478 14.6405 12.6865 14.6987 12.5199 14.6987C12.4783 14.6985 12.4368 14.695 12.3958 14.6881L7.49261 13.8275C7.39849 13.8141 7.30804 13.782 7.22665 13.7332C7.14525 13.6844 7.07457 13.6198 7.01881 13.5433C6.96305 13.4668 6.92335 13.3799 6.90206 13.2878C6.88078 13.1958 6.87835 13.1004 6.89492 13.0074C6.91149 12.9144 6.94671 12.8256 6.99851 12.7464C7.0503 12.6672 7.1176 12.5991 7.19641 12.5463C7.27521 12.4934 7.36391 12.4569 7.45723 12.4388C7.55054 12.4206 7.64657 12.4214 7.7396 12.4409L12.6428 13.3003C12.7347 13.3167 12.8224 13.351 12.9009 13.4012C12.9795 13.4513 13.0472 13.5164 13.1004 13.5926C13.1535 13.6689 13.191 13.7548 13.2106 13.8455C13.2303 13.9362 13.2317 14.0298 13.2148 14.121L13.2184 14.1175Z" fill="black"/>
</svg>
