<svg width="26" height="26" viewBox="0 0 26 26" fill="none" xmlns="http://www.w3.org/2000/svg">
<path d="M24.3182 3H1.86364C1.38594 3 1 3.38594 1 3.86364V21.1364C1 21.6141 1.38594 22 1.86364 22H24.3182C24.7959 22 25.1818 21.6141 25.1818 21.1364V3.86364C25.1818 3.38594 24.7959 3 24.3182 3ZM23.2386 5.99034V20.0568H2.94318V5.99034L2.1983 5.41009L3.25895 4.04716L4.41406 4.94588H21.7705L22.9256 4.04716L23.9862 5.41009L23.2386 5.99034ZM21.7705 4.94318L13.0909 11.6903L4.41136 4.94318L3.25625 4.04446L2.1956 5.40739L2.94048 5.98764L12.1598 13.1558C12.4249 13.3618 12.7511 13.4736 13.0869 13.4736C13.4226 13.4736 13.7488 13.3618 14.0139 13.1558L23.2386 5.99034L23.9835 5.41009L22.9229 4.04716L21.7705 4.94318Z" fill="black"/>
</svg>
