<svg width="26" height="26" viewBox="0 0 26 26" fill="none" xmlns="http://www.w3.org/2000/svg">
<path d="M13.2666 12.1333C14.4665 12.1333 15.6394 11.7775 16.6371 11.1109C17.6347 10.4443 18.4123 9.49679 18.8715 8.38826C19.3307 7.27972 19.4508 6.05992 19.2167 4.88311C18.9826 3.70629 18.4048 2.62532 17.5564 1.77688C16.708 0.928447 15.627 0.350655 14.4502 0.116572C13.2734 -0.117511 12.0536 0.00262858 10.945 0.461799C9.83649 0.920969 8.88901 1.69855 8.2224 2.6962C7.55578 3.69386 7.19998 4.86678 7.19998 6.06665C7.19998 7.67563 7.83915 9.2187 8.97686 10.3564C10.1146 11.4941 11.6577 12.1333 13.2666 12.1333ZM13.2666 1.73333C14.1237 1.73333 14.9615 1.98748 15.6741 2.46363C16.3867 2.93978 16.9421 3.61655 17.2701 4.40836C17.5981 5.20017 17.6839 6.07146 17.5167 6.91204C17.3495 7.75262 16.9368 8.52475 16.3308 9.13077C15.7247 9.7368 14.9526 10.1495 14.112 10.3167C13.2714 10.4839 12.4002 10.3981 11.6083 10.0701C10.8165 9.74214 10.1398 9.18673 9.66361 8.47412C9.18746 7.76151 8.93331 6.9237 8.93331 6.06665C8.93331 4.91738 9.38986 3.81519 10.2025 3.00253C11.0152 2.18988 12.1174 1.73333 13.2666 1.73333Z" fill="#9e9e9e"/>
<path d="M25.47 18.5207C23.8663 17.0517 21.9337 15.8816 19.7905 15.082C17.6473 14.2823 15.3384 13.8699 13.005 13.8699C10.6716 13.8699 8.36268 14.2823 6.21945 15.082C4.07622 15.8816 2.14369 17.0517 0.540001 18.5207C0.192314 18.8426 -0.000786911 19.2672 2.4103e-06 19.7081V24.2667C2.4103e-06 24.7264 0.210716 25.1673 0.585788 25.4924C0.96086 25.8174 1.46957 26 2 26H24C24.5304 26 25.0391 25.8174 25.4142 25.4924C25.7892 25.1673 26 24.7264 26 24.2667V19.7081C26.0035 19.2683 25.814 18.8439 25.47 18.5207ZM24 24.2667H2V19.6994C3.41722 18.406 5.12328 17.3762 7.01435 16.6724C8.90541 15.9686 10.9419 15.6057 13 15.6057C15.058 15.6057 17.0945 15.9686 18.9856 16.6724C20.8767 17.3762 22.5827 18.406 24 19.6994V24.2667Z" fill="#9e9e9e"/>
</svg>
